<?xml version="1.0" encoding="UTF-8" standalone="no"?>
<!-- Uploaded to: SVG Repo, www.svgrepo.com, Generator: SVG Repo Mixer Tools -->

<svg
   fill="#000000"
   version="1.1"
   id="Capa_1"
   width="799.99994"
   height="799.99994"
   viewBox="0 0 38.849997 38.849997"
   xml:space="preserve"
   xmlns="http://www.w3.org/2000/svg"
   xmlns:svg="http://www.w3.org/2000/svg"><defs
   id="defs1" />

<path
   style="display:inline;fill:#ff00ff;stroke-width:0.0493648"
   d="M 6.8003681,34.159951 C 4.6740925,33.889457 2.8011991,33.065907 1.569571,31.859861 1.053342,31.354355 0.74734439,30.937235 0.46874608,30.359276 0.17640643,29.752809 0.0760125,29.370144 0.04136231,28.730241 -0.07387653,26.60207 1.6142869,24.567408 4.3400646,23.549223 c 1.2787415,-0.47766 2.256815,-0.64267 3.8051069,-0.641959 1.5570425,7.14e-4 2.6094115,0.176122 3.8544765,0.642453 0.260645,0.09762 0.481848,0.16955 0.491561,0.159836 0.01457,-0.01457 1.861847,-10.776469 1.972562,-11.491796 0.01891,-0.122177 0.309264,-1.821556 0.645231,-3.7763974 L 15.719852,4.8871027 15.870124,4.75135 16.020395,4.6155972 h 11.207454 c 12.29775,0 11.416129,-0.022427 11.54709,0.2937408 0.05521,0.1332924 -0.0081,0.5567574 -0.559189,3.7417023 -0.341795,1.9752697 -1.256291,7.4344397 -2.032212,12.1314887 -1.514867,9.170258 -1.481181,8.997634 -1.915395,9.815475 -0.938174,1.767049 -3.115624,3.070205 -5.883455,3.521118 -0.760659,0.123921 -2.591029,0.12509 -3.356797,0.0021 -2.812633,-0.451576 -5.06617,-1.843732 -6.009772,-3.712626 -0.06854,-0.135753 -0.187024,-0.435643 -0.263296,-0.666423 -0.126399,-0.382453 -0.138919,-0.485152 -0.141426,-1.160069 -0.003,-0.818381 0.04984,-1.085422 0.342975,-1.732079 0.371055,-0.818543 1.105379,-1.667361 1.975793,-2.283853 0.49023,-0.347217 1.620812,-0.91961 2.197808,-1.112711 1.033418,-0.345848 1.994008,-0.515211 3.161278,-0.557368 1.539453,-0.0556 2.977922,0.167316 4.279058,0.663113 0.25182,0.09596 0.464765,0.165765 0.47321,0.15513 0.02244,-0.02826 1.858483,-10.814428 1.858242,-10.916588 -1.94e-4,-0.08186 -0.364596,-0.08639 -6.959683,-0.08639 h -6.959479 l -0.02528,0.111071 c -0.0139,0.06109 -0.636457,3.809719 -1.383455,8.330288 -1.449961,8.774655 -1.434876,8.69729 -1.838371,9.428654 -0.990412,1.795196 -3.052301,3.05097 -5.7638325,3.510408 -0.7876357,0.133455 -2.3875846,0.167826 -3.1712964,0.06813 z"
   id="path2" /></svg>
